<svg width="362" height="362" viewBox="0 0 362 362" fill="none"
  xmlns="http://www.w3.org/2000/svg">
  <style>
  path {
    fill: #7D0F03;
  }
  @media (prefers-color-scheme: dark) {
    path { fill: #ffffff; }
  }
  </style>
  <path d="M148.182 117.451C102.802 96.2546 42.9321 128.221 14.686 188.874C5.33297 208.546 0.324167 230 0 251.78C1.42481 247.78 3.05884 243.859 4.89534 240.031C29.3721 187.846 80.5773 160.335 119.691 178.594C158.805 196.854 170.798 253.885 146.469 305.873C144.657 309.741 142.699 313.51 140.594 317.132C157.066 302.891 170.287 285.279 179.365 265.487C207.611 205.029 193.66 138.697 148.182 117.451Z" />
  <path d="M347.031 188.874C318.736 128.221 258.963 96.2546 213.486 117.451C168.008 138.648 154.056 205.029 182.302 265.682C191.377 285.462 204.6 303.059 221.074 317.279C218.969 313.706 217.01 309.936 215.199 306.069C190.722 253.885 202.863 196.854 241.977 178.79C281.09 160.726 332.54 188.042 356.821 240.178C358.649 244.094 360.281 248.01 361.717 251.927C361.404 230.099 356.396 208.594 347.031 188.874Z" />
  <path d="M180.833 45C173.192 45.3805 166.013 48.772 160.866 54.4325C155.719 60.093 153.024 67.5616 153.37 75.2043C153.024 82.8469 155.719 90.3155 160.866 95.976C166.013 101.636 173.192 105.028 180.833 105.409C188.474 105.028 195.653 101.636 200.8 95.976C205.947 90.3155 208.642 82.8469 208.296 75.2043C208.642 67.5616 205.947 60.093 200.8 54.4325C195.653 48.772 188.474 45.3805 180.833 45Z" />
  <path d="M125.174 218.981C124.162 215.441 122.401 212.159 120.011 209.359C117.62 206.558 114.656 204.304 111.318 202.749C107.98 201.194 104.348 200.374 100.666 200.345C96.9837 200.317 93.3385 201.079 89.9769 202.582C82.7887 205.756 76.9961 211.43 73.6741 218.551C70.3522 225.672 69.7264 233.756 71.9131 241.304C72.931 244.846 74.6974 248.128 77.0929 250.928C79.4883 253.729 82.457 255.983 85.7983 257.537C89.1396 259.092 92.7757 259.911 96.4609 259.94C100.146 259.968 103.794 259.206 107.16 257.703C114.352 254.537 120.147 248.862 123.462 241.736C126.777 234.611 127.386 226.522 125.174 218.981Z" />
  <path d="M270.273 202.776C266.903 201.257 263.246 200.483 259.549 200.506C255.853 200.53 252.206 201.35 248.855 202.911C245.505 204.473 242.531 206.738 240.136 209.553C237.741 212.369 235.982 215.667 234.977 219.225C232.772 226.778 233.395 234.875 236.729 242.003C240.063 249.13 245.879 254.798 253.09 257.947C256.459 259.44 260.11 260.195 263.795 260.159C267.48 260.123 271.115 259.298 274.455 257.74C277.794 256.181 280.761 253.925 283.156 251.124C285.551 248.322 287.317 245.04 288.337 241.498C290.523 233.951 289.898 225.867 286.576 218.746C283.254 211.624 277.461 205.95 270.273 202.776Z" />
</svg>
